<svg width="29" height="29" viewBox="0 0 29 29" fill="none" xmlns="http://www.w3.org/2000/svg">
<path d="M22.976 16.0005C22.9807 15.5102 22.9609 15.0992 22.9946 14.6929C23.078 13.6864 23.7406 13.0461 24.7242 13.0163C25.3197 12.9983 25.9166 12.9986 26.5122 13.0159C27.7074 13.0508 28.3479 13.6014 28.3744 14.8174C28.4002 16.0054 28.2432 17.1968 28.202 18.3879C28.1923 18.6701 28.3073 18.9633 28.3954 19.2412C28.582 19.8302 28.9435 20.4078 28.9599 20.9982C29.0257 23.3624 28.9664 25.73 28.9997 28.0956C29.0095 28.7914 28.7765 28.9999 28.1144 28.9987C19.0319 28.982 9.9493 28.981 0.8668 29C0.169883 29.0015 -0.00531404 28.7197 0.00130636 28.0653C0.0249458 25.7286 -0.0380779 23.3898 0.0430283 21.0558C0.0653325 20.414 0.483319 19.7893 0.703862 19.1509C0.779748 18.9313 0.859043 18.6913 0.848374 18.4651C0.788316 17.1915 0.624845 15.9177 0.648472 14.647C0.666331 13.6864 1.31988 13.101 2.24704 13.037C2.98109 12.9863 3.72479 12.9864 4.458 13.0455C5.30731 13.114 5.96396 13.7164 5.96781 14.543C5.97388 15.8454 5.84078 17.1482 5.78546 18.4517C5.77686 18.6544 5.81141 18.9052 5.92299 19.0595C6.54877 19.9246 7.23658 20.7436 7.83912 21.6248C8.29617 22.2932 8.91711 22.3374 9.57011 22.2187C9.74828 22.1864 10.0112 21.8162 9.99586 21.621C9.88666 20.2317 10.2859 19.166 11.5603 18.5086C11.716 18.4283 11.7637 18.0132 11.7666 17.7521C11.7779 16.7623 11.7156 15.7708 11.7463 14.7821C11.781 13.6669 12.3835 13.0571 13.4567 13.0224C14.4491 12.9904 15.4436 13.0295 16.4365 13.0072C16.9577 12.9955 17.1577 13.2529 17.1536 13.7469C17.1429 15.0314 17.1718 16.3184 17.0979 17.5991C17.0684 18.1095 17.1546 18.4204 17.5975 18.6547C18.6051 19.1878 19.0992 20.0103 18.9933 21.2186C18.9652 21.5389 19.1728 22.161 19.2937 22.1668C19.8232 22.1921 20.5499 22.2364 20.8589 21.918C21.7116 21.0393 22.4025 19.9913 23.1262 18.9865C23.2355 18.8347 23.2092 18.5532 23.1921 18.3362C23.1328 17.5837 23.0499 16.8333 22.976 16.0005ZM6.10234 23.3223C6.61408 23.7876 7.07051 24.5372 7.64956 24.6565C8.71393 24.8758 9.85496 24.781 10.954 24.6893C11.2472 24.6648 11.504 24.177 11.7775 23.9019C11.5064 23.6599 11.2601 23.2582 10.9592 23.2087C10.2946 23.0995 9.60169 23.1459 8.92169 23.1697C8.24517 23.1935 7.72844 22.9915 7.33628 22.3768C6.88649 21.6716 6.33487 21.0361 5.86945 20.3405C5.45875 19.7268 5.02934 19.5524 4.2931 19.8195C3.74373 20.0188 3.05113 20.0495 2.48564 19.9006C1.26599 19.5794 0.877569 19.7993 0.87124 21.1047C0.861185 23.1782 0.866321 25.2518 0.871591 27.3253C0.872224 27.5741 0.913657 27.8228 0.940632 28.1206C2.41381 28.1206 3.80257 28.1109 5.19108 28.1263C5.63739 28.1312 5.77617 27.936 5.78127 27.4965C5.80113 25.7826 6.03011 24.0214 4.58081 22.6978C4.5198 22.6421 4.4574 22.5556 4.44904 22.4774C4.42682 22.2698 4.43385 22.0588 4.42925 21.8491C4.65308 21.8889 4.95701 21.8484 5.08537 21.984C5.43876 22.3572 5.71859 22.8042 6.10234 23.3223ZM27.3346 28.1228C27.578 28.0983 27.8213 28.0739 28.1174 28.0441C28.1174 25.5243 28.1416 23.0755 28.1039 20.6278C28.0911 19.8045 27.6162 19.6464 26.8217 19.7903C26.076 19.9255 25.2627 19.9269 24.5258 19.7639C23.9995 19.6475 23.6552 19.6626 23.3375 20.0776C23.1099 20.3749 22.9057 20.6913 22.6785 20.989C20.6984 23.5838 21.7232 23.1112 18.5487 23.1638C18.4352 23.1657 18.3217 23.1663 18.2082 23.166C17.7083 23.1646 17.2738 23.2903 17.248 23.9022C17.2194 24.5786 17.697 24.7146 18.2167 24.7263C19.1244 24.7466 20.0419 24.8236 20.9368 24.7153C21.4377 24.6547 21.9968 24.3704 22.36 24.0072C22.9222 23.445 23.313 22.7055 23.8339 22.0928C23.9885 21.911 24.3356 21.9026 24.5944 21.8148C24.5665 22.0766 24.5602 22.3438 24.5016 22.5982C24.4712 22.7301 24.3657 22.8587 24.2644 22.9561C22.7426 24.4185 23.2941 26.271 23.2583 28.1231C24.6257 28.1231 25.8977 28.1231 27.3346 28.1228ZM13.5613 25.6472C11.2788 25.6472 8.99621 25.6472 6.72691 25.6472C6.72691 26.5465 6.72691 27.2909 6.72691 28.0389C11.9593 28.0389 17.1275 28.0389 22.2914 28.0389C22.2914 27.2123 22.2914 26.4699 22.2914 25.6472C19.3928 25.6472 16.5623 25.6472 13.5613 25.6472ZM12.4486 23.1723C12.5369 23.6503 12.6252 24.1283 12.7258 24.6733C13.8915 24.6733 15.0948 24.6733 16.3356 24.6733C16.3971 23.8275 16.2937 22.9646 17.177 22.5003C18.0846 22.0233 18.2871 21.518 18.0689 20.4815C17.8928 19.6453 16.7248 19.0028 16.1464 19.4448C15.0534 20.2802 13.9636 20.2575 12.8171 19.5537C12.5638 19.3982 12.1542 19.2877 11.9067 19.3892C11.148 19.7002 10.8724 20.3309 10.8726 21.1958C10.8729 21.928 11.0525 22.3285 11.7825 22.4777C12.0121 22.5247 12.188 22.8494 12.4486 23.1723ZM12.9261 18.3558C13.6463 19.1857 14.5473 19.4088 15.3349 18.952C16.1418 18.484 16.4501 17.3815 16.1283 16.0596C14.9887 16.0596 13.8423 16.0596 12.5145 16.0596C12.6331 16.8407 12.7394 17.5409 12.9261 18.3558ZM4.2215 15.0988C4.48001 15.1781 4.73851 15.2575 5.10206 15.3691C5.10206 14.9986 5.18242 14.7109 5.08858 14.5091C4.6026 13.4638 3.65604 13.9994 2.90371 13.9072C2.35666 13.8401 1.66128 13.7742 1.53478 14.5523C1.42011 15.2575 1.46621 15.996 1.50264 16.7166C1.50939 16.8501 1.79476 17.0499 1.97297 17.0787C2.67855 17.1929 3.10033 16.7755 3.34308 15.8611C3.44608 15.4731 3.33013 14.811 4.2215 15.0988ZM24.2565 15.284C25.3524 14.8899 25.3524 14.8899 25.7233 16.0496C26.0215 16.9822 26.4963 17.2206 27.5271 16.9033C27.5271 16.2016 27.5894 15.4702 27.4977 14.76C27.4588 14.459 27.1221 13.9961 26.8763 13.9636C26.0994 13.8611 25.2935 13.8563 24.5142 13.9497C23.854 14.0289 23.698 14.6803 24.2565 15.284ZM3.18743 19.18C4.63926 19.0571 5.40748 18.1096 5.18891 16.6622C5.16283 16.4895 4.94845 16.2556 4.78568 16.2193C4.58174 16.1737 4.18146 16.2457 4.14077 16.3657C3.74383 17.5362 2.93665 18.0633 1.70373 18.0031C1.68241 18.1091 1.66109 18.2151 1.63977 18.3211C2.10901 18.6056 2.57824 18.8902 3.18743 19.18ZM26.3555 19.0907C26.6842 18.7895 27.0129 18.4882 27.3417 18.187C26.1458 18.0207 25.3614 17.5947 24.9324 16.5357C24.8615 16.3607 24.4796 16.1927 24.2849 16.2348C24.1077 16.273 23.8826 16.5906 23.8624 16.8034C23.7079 18.4353 24.6046 19.2999 26.3555 19.0907ZM12.9296 14.0705C12.8062 14.3558 12.6828 14.6411 12.5174 15.0236C13.8795 15.0236 15.0465 15.0236 16.2283 15.0236C16.2283 14.6202 16.2283 14.2895 16.2283 13.9751C15.1196 13.9751 14.0805 13.9751 12.9296 14.0705Z" fill="#F9FBFD"/>
<path d="M15.4167 11.9437C14.5759 11.9721 13.8017 11.9909 13.0277 11.9828C12.1654 11.9738 11.5083 11.6213 11.0371 10.8333C10.8787 10.5684 10.4686 10.322 10.1657 10.3118C8.61853 10.2597 7.06776 10.2559 5.52073 10.3098C5.13356 10.3234 4.73537 10.5771 4.38032 10.7879C4.14038 10.9304 3.98384 11.2128 3.7604 11.3942C3.34882 11.7285 2.91545 12.0344 2.49117 12.3522C2.38659 11.8351 2.31698 11.3068 2.16325 10.8056C2.08158 10.5393 1.90583 10.2011 1.68383 10.0995C0.472199 9.54476 0.0171135 8.55524 0.0121786 7.27345C0.00628449 5.74296 -0.0149875 4.21183 0.0180609 2.68207C0.050794 1.1669 0.992718 0.0714589 2.47655 0.0421529C5.74388 -0.0223779 9.0141 -0.00832568 12.2817 0.0538515C13.5932 0.078808 14.5404 1.07014 14.5846 2.44458C14.6136 3.34717 14.9613 3.48705 15.7257 3.46644C17.5887 3.41622 19.454 3.43984 21.3182 3.45325C23.2135 3.46689 23.9714 4.2469 23.9927 6.18924C24.0046 7.27813 24 8.36731 23.9925 9.45628C23.9858 10.4272 23.6503 11.1746 22.8206 11.7642C22.5056 11.988 22.4899 12.6577 22.3419 13.1255C22.2502 13.4157 22.1663 13.7084 22.0789 14C21.7917 13.8625 21.4885 13.751 21.2223 13.5792C21.0076 13.4406 20.8057 13.2537 20.6531 13.0458C20.0033 12.16 19.1527 11.8823 18.0932 11.961C17.7196 11.9888 16.9841 11.6611 16.9923 11.5356C17.0384 10.8318 17.653 11.1348 18.0559 11.0802C19.3714 10.9018 20.5592 11.1034 21.3758 12.4484C21.3212 11.5165 21.7313 11.1096 22.47 10.8341C22.7477 10.7306 23.0296 10.2084 23.0436 9.86559C23.1023 8.42674 23.077 6.98321 23.048 5.54212C23.034 4.84248 22.6075 4.43873 21.9496 4.42904C19.7133 4.39609 17.4762 4.38847 15.2403 4.42877C15.0367 4.43244 14.6959 4.83089 14.6676 5.0762C14.5874 5.77309 14.6392 6.48564 14.6334 7.19198C14.6181 9.03925 14.0519 9.77694 12.3012 10.2495C12.1961 10.2779 12.1032 10.3541 11.7227 10.5624C12.3126 10.7849 12.6839 11.0127 13.0736 11.0527C13.7554 11.1226 14.4495 11.0566 15.1362 11.0927C15.3402 11.1034 15.5368 11.2651 15.7367 11.3576C15.6523 11.5458 15.5678 11.7339 15.4167 11.9437ZM2.02947 9.23712C2.89641 9.25357 3.13786 9.84043 3.19023 10.7157C4.12799 9.09122 5.59395 9.34187 6.99204 9.34992C8.59616 9.35917 10.2012 9.37899 11.8043 9.33593C13.1586 9.29955 13.7175 8.68985 13.7375 7.29761C13.7585 5.82809 13.7615 4.35761 13.7353 2.88825C13.7122 1.58978 13.1785 0.922672 11.9284 0.896751C8.86475 0.833227 5.7987 0.837345 2.73456 0.882026C1.60066 0.89856 0.951963 1.60763 0.930323 2.70911C0.898573 4.32516 0.922771 5.94245 0.929502 7.55919C0.932588 8.3003 1.2368 8.85811 2.02947 9.23712Z" fill="#F4F7FB"/>
<path d="M5.71784 22.8164C5.33697 22.3167 5.02924 21.8394 4.64062 21.4408C4.49946 21.296 4.16522 21.3393 3.91907 21.2968C3.92414 21.5207 3.91641 21.746 3.94084 21.9677C3.95004 22.0512 4.01865 22.1436 4.08574 22.2031C5.67955 23.6165 5.42774 25.4973 5.40589 27.3274C5.40029 27.7967 5.24768 28.0052 4.75686 27.9999C3.22992 27.9835 1.70269 27.9939 0.0826292 27.9939C0.0529653 27.6758 0.00740125 27.4103 0.00670485 27.1446C0.000909931 24.9303 -0.00473899 22.7161 0.00631881 20.5019C0.013279 19.1079 0.440422 18.8731 1.78168 19.2161C2.40355 19.3751 3.16521 19.3423 3.76935 19.1295C4.579 18.8443 5.05122 19.0304 5.50287 19.6859C6.0147 20.4286 6.62132 21.1073 7.11595 21.8602C7.54721 22.5168 8.11546 22.7324 8.85943 22.707C9.60722 22.6815 10.3692 22.6321 11.1001 22.7487C11.431 22.8015 11.7019 23.2305 12 23.4889C11.6992 23.7826 11.4168 24.3036 11.0943 24.3297C9.88575 24.4276 8.63096 24.5289 7.46046 24.2947C6.82368 24.1673 6.32174 23.3669 5.71784 22.8164Z" fill="#76A0C7"/>
<path d="M27.1174 27.9998C25.7478 28 24.4615 28 23.0788 28C23.115 26.0208 22.5573 24.041 24.0962 22.4782C24.1986 22.3742 24.3053 22.2368 24.336 22.0958C24.3953 21.824 24.4016 21.5384 24.4299 21.2586C24.1681 21.3525 23.8171 21.3615 23.6609 21.5557C23.1342 22.2105 22.7389 23.0007 22.1704 23.6015C21.8031 23.9897 21.2378 24.2935 20.7313 24.3583C19.8264 24.474 18.8986 24.3917 17.9808 24.37C17.4552 24.3575 16.9724 24.2122 17.0012 23.4893C17.0273 22.8354 17.4668 22.7011 17.9722 22.7026C18.087 22.7029 18.2018 22.7023 18.3165 22.7003C21.5265 22.644 20.4902 23.1491 22.4926 20.3761C22.7223 20.058 22.9287 19.7199 23.1589 19.4021C23.4801 18.9587 23.8283 18.9425 24.3605 19.0669C25.1057 19.2411 25.928 19.2396 26.6821 19.0952C27.4854 18.9414 27.9657 19.1103 27.9786 19.9901C28.0168 22.6059 27.9923 25.2228 27.9923 27.9155C27.6929 27.9474 27.4468 27.9735 27.1174 27.9998Z" fill="#76A0C7"/>
<path d="M13.6686 25C16.4786 25 19.2065 25 22 25C22 26.0319 22 26.9631 22 28C17.0234 28 12.0426 28 7 28C7 27.0618 7 26.128 7 25C9.187 25 11.3868 25 13.6686 25Z" fill="#759FC6"/>
<path d="M12.4872 22.5446C12.2654 22.3024 12.0961 22.0002 11.8752 21.9565C11.173 21.8176 11.0002 21.4449 11 20.7635C10.9998 19.9585 11.2649 19.3715 11.9947 19.082C12.2328 18.9876 12.6269 19.0904 12.8705 19.2351C13.9734 19.8902 15.0218 19.9113 16.0732 19.1338C16.6296 18.7224 17.7532 19.3204 17.9226 20.0987C18.1325 21.0633 17.9377 21.5336 17.0646 21.9776C16.2149 22.4097 16.3144 23.2128 16.2552 24C15.0616 24 13.904 24 12.7827 24C12.6859 23.4928 12.601 23.0479 12.4872 22.5446Z" fill="#77A0C7"/>
<path d="M13.298 17.8674C13.1804 16.8972 13.0951 16.0004 13 15C14.0653 15 14.985 15 15.8993 15C16.1575 16.693 15.9101 18.1051 15.2627 18.7045C14.6309 19.2894 13.9081 19.0038 13.298 17.8674Z" fill="#759FC6"/>
<path d="M3.93704 14.7537C3.03499 14.5918 3.16129 14.9996 3.0491 15.2386C2.78467 15.8019 2.32524 16.059 1.55667 15.9886C1.36254 15.9709 1.05169 15.8478 1.04434 15.7656C1.00467 15.3217 0.954447 14.8668 1.07935 14.4324C1.21715 13.9531 1.97461 13.9937 2.5705 14.035C3.38999 14.0919 4.42106 13.7619 4.95042 14.4058C5.05264 14.5301 4.96511 14.7073 4.96511 14.9356C4.5691 14.8668 4.28752 14.8179 3.93704 14.7537Z" fill="#7CA4C9"/>
<path d="M24.2354 14.8879C23.8332 14.5057 23.9615 14.0925 24.5046 14.0423C25.1456 13.9831 25.8086 13.9861 26.4476 14.0511C26.6498 14.0717 26.9268 14.3653 26.9588 14.5562C27.0343 15.0068 26.983 15.4707 26.983 15.9158C26.1351 16.117 25.7445 15.9658 25.4992 15.3742C25.1941 14.6386 25.1941 14.6386 24.2354 14.8879Z" fill="#7CA4C9"/>
<path d="M2.64838 19C2.04688 18.6135 1.52344 18.2305 1 17.8475C1.02378 17.7048 1.04756 17.5622 1.07134 17.4195C2.4467 17.5005 3.34711 16.7911 3.78992 15.2156C3.83531 15.0541 4.28183 14.9573 4.50933 15.0186C4.6909 15.0675 4.93005 15.3823 4.95914 15.6147C5.20296 17.5629 4.34599 18.8382 2.64838 19Z" fill="#7CA4C9"/>
<path d="M26.0955 17.9817C24.6515 18.1145 23.8821 17.5193 24.0147 16.3959C24.032 16.2494 24.2251 16.0308 24.3772 16.0045C24.5442 15.9756 24.8719 16.0912 24.9327 16.2117C25.3009 16.9406 25.9739 17.2339 27 17.3483C26.7179 17.5557 26.4359 17.7631 26.0955 17.9817Z" fill="#7CA4C9"/>
<path d="M2.06905 9.46972C1.32649 9.11733 1.01848 8.55201 1.01536 7.80091C1.00854 6.16239 0.984041 4.5233 1.01619 2.88546C1.0381 1.76915 1.69489 1.05052 2.84294 1.03376C5.94532 0.988478 9.04964 0.984304 12.1515 1.04869C13.4172 1.07496 13.9575 1.75106 13.981 3.06702C14.0075 4.55619 14.0045 6.04648 13.9832 7.53581C13.963 8.94681 13.3971 9.56473 12.0259 9.6016C10.4028 9.64524 8.77769 9.62515 7.15355 9.61578C5.73802 9.60762 4.25376 9.35359 3.3043 11C3.25127 10.1129 3.00681 9.51813 2.06905 9.46972ZM6.03675 5.79315C7.75113 5.79255 9.46592 5.81029 11.1794 5.76986C11.4132 5.76435 11.6405 5.46848 11.8708 5.30705C11.6465 5.1709 11.4235 4.91887 11.1979 4.91637C8.69924 4.88871 6.20013 4.89075 3.70146 4.91671C3.49259 4.91888 3.286 5.15271 3.07835 5.27891C3.28019 5.44711 3.47146 5.74155 3.68581 5.76049C4.40709 5.82424 5.13657 5.78994 6.03675 5.79315ZM5.34422 3.4408C7.31566 3.43958 9.28732 3.45184 11.2582 3.41731C11.4664 3.41366 11.6701 3.13503 11.8759 2.98398C11.6915 2.84512 11.5083 2.58728 11.3226 2.58535C8.77157 2.55875 6.22012 2.55906 3.66911 2.58562C3.49271 2.58746 3.31888 2.84941 3.14386 2.9904C3.32712 3.13844 3.49769 3.38821 3.69617 3.41435C4.1813 3.47822 4.67933 3.43869 5.34422 3.4408ZM6.19564 8.12494C6.51357 8.12463 6.84497 8.18133 7.14533 8.10654C7.40049 8.043 7.61986 7.82776 7.85506 7.67965C7.63086 7.53716 7.41062 7.2799 7.18177 7.27154C6.02712 7.22936 4.86944 7.22968 3.71485 7.27264C3.50814 7.28033 3.31097 7.55838 3.10939 7.71159C3.32988 7.84893 3.54376 8.08923 3.77208 8.10472C4.52033 8.15548 5.27383 8.1245 6.19564 8.12494Z" fill="#76A0C6"/>
<path d="M5.93927 5.99294C5.10681 5.98938 4.3601 6.02737 3.6218 5.95677C3.4024 5.93579 3.20661 5.60977 3 5.42352C3.21255 5.28378 3.42402 5.02487 3.63782 5.02247C6.19547 4.99372 8.75358 4.99146 11.3112 5.02209C11.5422 5.02486 11.7705 5.30393 12 5.45468C11.7643 5.63344 11.5316 5.96104 11.2923 5.96715C9.53836 6.01191 7.78309 5.99227 5.93927 5.99294Z" fill="#FDFEFE"/>
<path d="M5.17922 2.9885C4.58259 2.98612 4.06928 3.03077 3.56926 2.95863C3.36469 2.92912 3.18889 2.64702 3 2.47983C3.18039 2.3206 3.35956 2.02475 3.54137 2.02267C6.17067 1.99267 8.80042 1.99232 11.4297 2.02236C11.6211 2.02455 11.81 2.31575 12 2.47257C11.7879 2.64317 11.578 2.95786 11.3634 2.96197C9.332 3.00097 7.29983 2.98713 5.17922 2.9885Z" fill="#F8FAFC"/>
<path d="M6.16192 7.97758C5.28043 7.97709 4.48655 8.01131 3.6982 7.95523C3.45764 7.93812 3.23231 7.67262 3 7.52088C3.21238 7.35159 3.42012 7.04438 3.63791 7.03588C4.85437 6.98842 6.07409 6.98807 7.29062 7.03467C7.53174 7.0439 7.76378 7.32815 8 7.48558C7.75219 7.64923 7.52107 7.88704 7.25223 7.95724C6.93577 8.03988 6.58662 7.97723 6.16192 7.97758Z" fill="#F8FAFC"/>
</svg>
