<svg width="35" height="31" viewBox="0 0 35 31" fill="none" xmlns="http://www.w3.org/2000/svg">
<path d="M6.67095 28.5745C6.97449 28.3674 7.47563 28.5571 7.45642 27.9353C7.45183 27.7868 8.03419 27.62 8.38305 27.4431C8.18918 26.3011 8.01129 25.1572 7.79814 24.0199C7.47083 22.2736 8.18014 21.5761 9.87574 21.995C10.4518 22.1373 11.0329 22.2592 11.6515 22.3994C12.1296 21.2361 13.131 22.1727 13.7801 21.8722C13.6792 20.4551 13.5535 19.0571 13.4969 17.6564C13.4813 17.2684 13.3256 16.8171 13.9026 16.5053C14.307 16.2867 13.975 14.8617 13.5414 14.7021C9.76794 13.3133 7.1119 10.5804 4.84254 7.39392C4.26813 6.58737 3.75465 5.73379 3.26432 4.87247C3.14341 4.66008 3.2588 4.32487 3.20176 4.05997C3.11867 3.67406 2.97778 3.3007 2.84279 2.86093C2.16661 3.20087 1.63651 3.53253 1.06077 3.73006C0.760785 3.83298 0.38035 3.69945 0.0362549 3.67273C0.0792174 3.32947 -0.00497061 2.85884 0.187384 2.66524C0.976391 1.87112 1.82777 1.134 2.70062 0.431556C3.17429 0.0503627 3.69667 0.175722 3.78925 0.80339C4.08875 2.83406 5.64266 3.69828 7.13467 4.6858C10.222 6.7292 13.5169 8.33564 17.0363 9.44184C19.1247 10.0982 21.2748 9.82288 23.3056 9.17719C25.3938 8.51326 27.3714 7.50289 29.4513 6.80639C30.371 6.49839 30.8703 6.00597 31.2097 5.16429C31.4391 4.5955 31.8888 4.46355 32.33 4.95804C33.1109 5.83317 33.8776 6.724 34.5907 7.65428C34.721 7.82422 34.6722 8.34119 34.5183 8.46763C34.3391 8.61489 33.8997 8.61307 33.6679 8.4925C33.0714 8.18219 32.5271 7.7706 31.889 7.35158C31.4691 7.97158 31.1228 8.59769 30.6699 9.13284C28.0342 12.2471 24.6292 14.0076 20.6693 14.7492C19.3171 15.0025 19.0537 15.3977 19.4146 16.7232C19.4848 16.9812 19.5109 17.2645 19.4928 17.5317C19.3794 19.2077 19.3365 20.873 19.901 22.2888C21.1237 22.4015 22.2132 22.5186 23.3057 22.5909C23.5764 22.6088 23.8553 22.474 24.1329 22.4223C25.436 22.1794 26.2038 23.0347 25.8112 24.3223C25.4738 25.4288 25.0922 26.5218 24.7311 27.618C25.2585 27.9428 25.7456 28.2427 26.3616 28.6221C26.3663 28.7201 26.3807 29.016 26.395 29.312C26.3147 29.3156 26.2345 29.3193 26.1542 29.323C26.2967 29.4081 26.4392 29.4933 26.5817 29.5784C26.4738 29.6876 26.3633 29.8924 26.2584 29.8896C25.7583 29.8761 25.26 29.8032 24.7605 29.7574C24.4478 29.7288 24.1342 29.7106 23.6476 29.6751C23.3658 29.1441 23.155 28.5767 23.5465 27.665C23.9414 26.7451 23.7332 25.5642 23.7902 24.4801C22.1851 25.0123 20.6953 25.5062 19.0291 26.0587C20.0577 26.3075 20.8695 26.5039 21.6813 26.7003C21.708 26.8386 21.7346 26.9768 21.7612 27.1151C20.1692 27.1131 19.4299 28.4284 18.2932 29.0758C16.2235 30.2546 14.4863 28.4422 14.5152 26.7325C14.5293 25.8936 14.0707 25.3619 13.2312 25.1299C12.6705 24.975 12.1217 24.9002 11.6586 24.3236C11.336 23.922 10.4675 23.9626 9.70884 23.7719C9.76227 25.2196 9.05592 26.5308 9.72735 27.9297C9.90446 28.2987 9.68195 28.8611 9.65496 29.1887C8.64664 29.5178 7.77482 29.8023 6.77216 30.1296C6.71121 29.5082 6.66719 29.0595 6.67095 28.5745Z" fill="#B8E0EC"/>
</svg>
