<svg width="62" height="40" viewBox="0 0 62 40" fill="none" xmlns="http://www.w3.org/2000/svg">
<path d="M47.0881 35.6537C35.808 35.6537 24.626 35.661 13.4439 35.6402C12.5034 35.6385 11.5306 35.584 10.6286 35.3198C7.39017 34.3714 5.64753 31.5461 5.99352 27.5991C6.31536 23.9277 6.71303 20.2523 7.31387 16.6268C7.8231 13.5541 9.42251 11.2685 12.2855 10.4088C12.9961 10.1954 13.7723 10.1919 14.5185 10.191C25.4062 10.1781 36.2956 10.3013 47.1811 10.1249C51.6862 10.0519 54.2517 13.1583 54.8007 17.0003C55.3207 20.6397 55.8365 24.2982 56.0419 27.9698C56.2971 32.5323 53.7673 35.3886 49.6373 35.6203C48.8218 35.666 48.0033 35.6443 47.0881 35.6537ZM42.849 22.5C42.8489 19.9643 42.8151 17.4278 42.8661 14.8934C42.8854 13.93 42.6644 13.5823 41.7305 13.5878C34.5708 13.6295 27.4109 13.625 20.2512 13.5917C19.4049 13.5877 19.1247 13.8295 19.1319 14.8047C19.1722 20.2017 19.1496 25.5992 19.1544 30.9966C19.1547 31.3753 19.2015 31.7541 19.2259 32.1213C27.1464 32.1213 34.9427 32.1213 42.8491 32.1213C42.8491 28.932 42.8491 25.8247 42.849 22.5ZM15.7778 21.6534C15.2665 21.6534 14.7551 21.6534 14.1502 21.6534C14.1502 20.7462 14.1854 19.9905 14.1309 19.2428C14.1121 18.9848 13.9161 18.5988 13.7218 18.524C12.5341 18.0668 11.9508 18.5459 11.9384 19.8975C11.9213 21.7683 12.1928 21.6463 10.3785 21.6535C10.3459 21.6537 10.313 21.6562 10.2806 21.6533C9.43696 21.5782 8.96801 21.7972 8.99065 22.9478C9.01197 24.0315 9.42377 24.1964 10.2472 24.1769C11.9265 24.1371 11.9779 24.1744 11.9196 26.0777C11.8884 27.0958 12.2145 27.371 13.0925 27.3857C13.9981 27.4008 14.1884 26.9985 14.1706 26.0965C14.1329 24.1914 14.169 24.1621 15.9291 24.175C16.6829 24.1805 17.0803 23.973 17.0863 23.0313C17.0922 22.1169 16.9254 21.5252 15.7778 21.6534ZM48.5963 25.5859C48.8211 24.6126 48.6865 23.6609 47.816 23.2905C47.2713 23.0588 46.4068 23.097 45.9547 23.4441C45.5475 23.7567 45.3539 24.6518 45.3433 25.2957C45.3306 26.0632 45.8523 26.5952 46.5688 26.7559C47.4377 26.9508 48.094 26.6009 48.5963 25.5859ZM50.5293 19.0028C48.9989 19.3922 48.3229 20.7899 49.1063 21.9721C49.5939 22.7079 50.2647 23.0604 51.0651 22.7589C51.8843 22.4504 52.3181 21.7583 52.2505 20.7702C52.1784 19.7156 51.6207 19.1622 50.5293 19.0028Z" fill="#FEBB4F"/>
<path d="M18.8659 5.24819C19.9302 5.13966 20.9075 5.05596 21.8808 4.93369C23.7588 4.69774 24.5377 5.63225 24.1716 7.7909C20.8026 7.7909 17.4221 7.7909 14.0408 7.7909C14.0573 6.35839 14.4929 5.79281 15.6618 5.64048C16.6995 5.50526 17.7386 5.38338 18.8659 5.24819Z" fill="#FEBB4F"/>
<path d="M39.8351 7.86201C39.1557 7.86203 38.5732 7.86203 38.0157 7.86203C37.4972 5.69164 38.281 4.66943 40.1537 4.90402C42.2624 5.16818 44.3759 5.38504 46.4838 5.6568C47.5851 5.79878 48.0362 6.4359 48.0258 7.86199C45.3303 7.86199 42.6312 7.86199 39.8351 7.86201Z" fill="#FEBB4F"/>
<path d="M42.8491 22.6088C42.8492 25.8248 42.8492 28.9321 42.8492 32.1214C34.9428 32.1214 27.1464 32.1214 19.2259 32.1214C19.2015 31.7541 19.1547 31.3754 19.1544 30.9966C19.1497 25.5993 19.1722 20.2017 19.132 14.8047C19.1247 13.8296 19.4049 13.5878 20.2512 13.5918C27.4109 13.6251 34.5709 13.6296 41.7305 13.5878C42.6645 13.5824 42.8855 13.9301 42.8661 14.8935C42.8152 17.4279 42.849 19.9644 42.8491 22.6088Z" fill="white"/>
<path d="M15.8693 21.6536C16.9254 21.5253 17.0922 22.117 17.0863 23.0314C17.0803 23.9731 16.6829 24.1806 15.9291 24.1751C14.169 24.1622 14.1329 24.1915 14.1706 26.0966C14.1884 26.9986 13.9981 27.4009 13.0925 27.3858C12.2145 27.3711 11.8884 27.0959 11.9196 26.0778C11.9779 24.1745 11.9265 24.1372 10.2472 24.177C9.42377 24.1965 9.01197 24.0316 8.99065 22.9479C8.96801 21.7973 9.43697 21.5783 10.2806 21.6534C10.313 21.6563 10.3459 21.6538 10.3785 21.6536C12.1928 21.6464 11.9213 21.7684 11.9384 19.8976C11.9508 18.546 12.5341 18.0669 13.7218 18.5241C13.9161 18.5989 14.1121 18.9849 14.1309 19.2428C14.1854 19.9906 14.1502 20.7463 14.1502 21.6535C14.7551 21.6535 15.2665 21.6535 15.8693 21.6536Z" fill="white"/>
<path d="M48.5632 25.6656C48.0941 26.6009 47.4378 26.9508 46.5689 26.7559C45.8524 26.5952 45.3307 26.0632 45.3434 25.2957C45.354 24.6519 45.5476 23.7567 45.9548 23.4441C46.4069 23.097 47.2713 23.0588 47.8161 23.2906C48.6866 23.661 48.8211 24.6126 48.5632 25.6656Z" fill="white"/>
<path d="M50.6118 19.016C51.6208 19.1622 52.1785 19.7156 52.2506 20.7702C52.3181 21.7583 51.8844 22.4504 51.0652 22.7589C50.2648 23.0603 49.5939 22.7079 49.1063 21.9721C48.3229 20.7899 48.999 19.3922 50.6118 19.016Z" fill="white"/>
</svg>
