<svg width="31" height="28" viewBox="0 0 31 28" fill="none" xmlns="http://www.w3.org/2000/svg">
<path d="M25.1129 0.398672C26.5026 0.398915 27.8038 0.387978 29.1046 0.402833C30.2401 0.415798 30.7558 0.89265 30.7605 2.00622C30.7771 5.92381 30.7773 9.84156 30.7605 13.7592C30.7557 14.8765 30.2252 15.406 29.0083 15.3663C28.0846 15.3361 27.7726 15.6586 27.8896 16.5311C27.9241 16.789 27.8951 17.0632 27.8507 17.3223C27.695 18.2301 27.0569 18.4923 26.3301 17.9229C25.5175 17.2861 24.7718 16.5597 23.9297 15.9673C23.5037 15.6677 22.9341 15.4344 22.4214 15.4177C20.4719 15.3545 18.5191 15.4037 16.5677 15.3878C15.0611 15.3756 14.6237 14.9241 14.622 13.4198C14.6178 9.70828 14.6177 5.9968 14.6221 2.28534C14.6238 0.786669 15.0078 0.403149 16.5084 0.400363C19.347 0.395094 22.1856 0.39875 25.1129 0.398672ZM24.8177 6.30162C24.5551 5.55251 24.2586 4.81304 24.0406 4.05127C23.8615 3.42546 23.4449 3.31314 22.8972 3.37455C22.3337 3.43773 21.6793 3.12373 21.3793 4.01038C20.5327 6.51305 19.6042 8.98824 18.7159 11.477C18.6339 11.7068 18.608 11.9563 18.5556 12.1989C20.1654 12.4926 20.4181 12.4485 20.6359 11.5377C20.8403 10.683 21.2736 10.389 22.1224 10.486C22.8498 10.5691 23.5898 10.5392 24.3201 10.6042C24.4051 10.6118 24.4729 10.9026 24.5342 11.0675C25.0486 12.4529 25.2985 12.5769 26.8761 12.156C26.209 10.2426 25.5437 8.3344 24.8177 6.30162Z" fill="#89BFD2"/>
<path d="M7.19352 9.43612C9.1065 9.43612 10.9308 9.43612 12.8648 9.43612C12.8648 10.7726 12.8866 12.0008 12.839 13.2263C12.8326 13.3911 12.4877 13.6575 12.2795 13.6784C11.6648 13.7402 11.0385 13.675 10.4197 13.7106C9.66997 13.7536 9.09654 13.7241 9.16264 12.6933C9.20409 12.0469 8.57863 12.2915 8.21236 12.25C7.81596 12.2051 7.47376 12.303 7.53548 12.8041C7.63101 13.5796 7.25116 13.7606 6.55417 13.7145C5.81837 13.6658 5.0765 13.7163 4.33781 13.7001C3.88683 13.6901 3.59563 13.7901 3.6184 14.3275C3.63677 14.7612 3.60571 15.1962 4.23519 15.1429C4.7694 15.0976 4.97117 15.3918 5.20621 15.8365C5.70956 16.7889 6.32999 17.6799 7.00055 18.753C5.86354 19.257 4.69655 19.7742 3.43135 20.335C3.61077 20.7256 3.78968 21.1151 4.05656 21.6962C5.25143 21.1667 6.45246 20.7115 7.5718 20.1063C8.13765 19.8004 8.51051 19.7249 9.06672 20.0988C9.67074 20.5049 10.3682 20.7819 11.0437 21.0717C12.5615 21.7227 12.6325 21.6845 13.3227 20.1293C12.1148 19.6443 10.9056 19.1589 9.73357 18.6883C10.4176 17.5137 11.0031 16.5015 11.596 15.4935C11.8483 15.0645 12.8995 14.9419 13.2053 15.3917C13.9031 16.418 14.8002 17.0024 16.0494 17.0943C16.1927 17.1049 16.4206 17.453 16.4237 17.6475C16.452 19.4435 16.4654 21.2407 16.428 23.0363C16.4087 23.958 15.8125 24.4262 14.7393 24.4336C12.67 24.4479 10.5994 24.402 8.53195 24.4644C8.02492 24.4797 7.46295 24.7256 7.03976 25.0249C6.22384 25.6018 5.5121 26.3235 4.70735 26.9183C4.43852 27.117 3.92643 27.2817 3.68994 27.1557C3.40597 27.0044 3.20055 26.5433 3.13643 26.1851C3.04507 25.6749 3.1132 25.1364 3.1132 24.5077C2.68003 24.4805 2.31087 24.4607 1.94226 24.4337C0.761919 24.3469 0.284065 23.8814 0.279577 22.7052C0.264978 18.8768 0.264172 15.0482 0.279479 11.2197C0.28472 9.90863 0.795353 9.44238 2.1383 9.43762C3.79378 9.43176 5.44931 9.43616 7.19352 9.43612Z" fill="#89BFD2"/>
<path d="M7.77527 15.1353C8.47 15.1353 9.08508 15.1353 10.0148 15.1353C9.43791 16.0437 8.99003 16.749 8.39588 17.6846C7.72385 16.7966 7.19648 16.0997 6.5202 15.2061C7.08699 15.1719 7.3913 15.1535 7.77527 15.1353Z" fill="#89BFD2"/>
<path d="M24.848 6.36385C25.5437 8.33436 26.209 10.2426 26.8761 12.156C25.2985 12.5769 25.0486 12.4528 24.5341 11.0675C24.4729 10.9026 24.4051 10.6117 24.3201 10.6042C23.5897 10.5392 22.8497 10.569 22.1224 10.4859C21.2735 10.389 20.8403 10.683 20.6359 11.5377C20.4181 12.4484 20.1653 12.4925 18.5556 12.1988C18.608 11.9563 18.6338 11.7067 18.7158 11.477C19.6042 8.9882 20.5326 6.51301 21.3793 4.01034C21.6792 3.12369 22.3337 3.43769 22.8971 3.37451C23.4448 3.3131 23.8615 3.42542 24.0406 4.05123C24.2586 4.813 24.5551 5.55247 24.848 6.36385ZM22.8783 8.91031C23.1332 8.89015 23.388 8.87 23.7815 8.83888C23.4247 7.68489 23.0975 6.62719 22.7704 5.56949C22.7089 5.5713 22.6474 5.57311 22.5858 5.57492C22.2526 6.6503 21.9193 7.72568 21.5522 8.91046C22.0216 8.91046 22.3706 8.91046 22.8783 8.91031Z" fill="white"/>
<path d="M22.799 8.91035C22.3706 8.91043 22.0216 8.91043 21.5522 8.91043C21.9193 7.72565 22.2526 6.65027 22.5859 5.57489C22.6474 5.57308 22.7089 5.57127 22.7705 5.56946C23.0976 6.62716 23.4247 7.68486 23.7816 8.83885C23.388 8.86997 23.1332 8.89013 22.799 8.91035Z" fill="#89BFD2"/>
</svg>
