<svg width="16" height="27" viewBox="0 0 16 27" fill="none" xmlns="http://www.w3.org/2000/svg">
<path fill-rule="evenodd" clip-rule="evenodd" d="M7.80005 7C3.93005 7 0.800049 10.13 0.800049 14C0.800049 18.17 5.22005 23.92 7.04005 26.11C7.44005 26.59 8.17005 26.59 8.57005 26.11C10.38 23.92 14.8 18.17 14.8 14C14.8 10.13 11.67 7 7.80005 7Z" fill="white"/>
<path d="M7.04005 26.11L6.92469 26.2059L6.92482 26.206L7.04005 26.11ZM8.57005 26.11L8.68528 26.206L8.68567 26.2056L8.57005 26.11ZM7.80005 6.85C3.84721 6.85 0.650049 10.0472 0.650049 14H0.950049C0.950049 10.2128 4.01289 7.15 7.80005 7.15V6.85ZM0.650049 14C0.650049 16.1284 1.7743 18.6386 3.10875 20.8744C4.44686 23.1163 6.01229 25.108 6.92469 26.2059L7.15541 26.0141C6.2478 24.922 4.69323 22.9437 3.36635 20.7206C2.0358 18.4914 0.950049 16.0416 0.950049 14H0.650049ZM6.92482 26.206C7.38478 26.758 8.22531 26.758 8.68528 26.206L8.45482 26.014C8.11478 26.422 7.49531 26.422 7.15528 26.014L6.92482 26.206ZM8.68567 26.2056C9.59289 25.1079 11.1558 23.1162 12.4926 20.8743C13.8258 18.6386 14.95 16.1284 14.95 14H14.65C14.65 16.0416 13.5643 18.4914 12.235 20.7207C10.9093 22.9438 9.35721 24.9221 8.45443 26.0144L8.68567 26.2056ZM14.95 14C14.95 10.0472 11.7529 6.85 7.80005 6.85V7.15C11.5872 7.15 14.65 10.2128 14.65 14H14.95Z" fill="black"/>
<path d="M8.59893 18.9954C6.56209 18.9949 4.56339 18.9868 2.56486 18.9999C2.16478 19.0026 1.94655 18.9023 1.80831 18.543C1.22491 17.0269 0.815951 15.4734 0.479972 13.9024C0.249069 12.8227 0.0430238 11.7419 0.00989856 10.6371C-0.0292027 9.3331 0.0494708 8.04081 0.21173 6.74289C0.319878 5.87782 0.320237 5.00212 0.561231 4.15054C0.729135 3.55722 0.857824 2.95 1.32338 2.46312C1.44377 2.33722 1.39776 2.18206 1.40509 2.03736C1.43287 1.48832 1.51894 0.954429 1.86119 0.477195C2.02661 0.246525 2.23902 0.0840665 2.54382 0.0216043C2.97546 -0.0668521 3.33583 0.120365 3.43161 0.509055C3.62206 1.28199 3.56564 2.06596 3.53206 2.84708C3.51603 3.21998 3.44734 3.59121 3.43483 3.96406C3.38917 5.32427 3.31235 6.68221 3.1364 8.03472C3.12366 8.13261 3.13473 8.23296 3.13473 8.32261C3.23585 8.36246 3.27928 8.31065 3.32134 8.27291C4.22743 7.46001 5.35184 7.12982 6.60477 6.98541C7.69643 6.8596 8.78464 6.87546 9.87224 6.89769C10.6523 6.91363 11.3581 7.18779 11.9015 7.72352C11.9593 7.78055 12.0043 7.85421 12.1368 7.87357C12.2295 7.33214 12.1912 6.7906 12.1375 6.25574C12.0564 5.4485 12.0981 4.64829 12.1948 3.84643C12.2219 3.62154 12.2358 3.39465 12.2396 3.16846C12.2434 2.93727 12.2519 2.71548 12.4634 2.54248C12.5913 2.43792 12.5581 2.28964 12.5569 2.15597C12.5526 1.70148 12.5543 1.24483 12.7085 0.808353C12.9518 0.119551 13.5026 -0.0104558 14.0864 0.478882C14.6697 0.967787 14.8236 1.6007 14.7698 2.28028C14.7515 2.51047 14.7304 2.73005 14.8263 2.94797C14.903 3.12228 14.8922 3.3058 14.8853 3.48652C14.8069 5.52791 15.0715 7.55971 15.0981 9.59844C15.1149 10.8826 15.0166 12.1589 14.8613 13.4331C14.7488 14.356 14.6933 15.2856 14.5051 16.1998C14.3355 17.0232 14.1736 17.8476 13.8691 18.6469C13.7572 18.9405 13.5976 18.9995 13.2963 18.998C11.7433 18.9902 10.1902 18.995 8.59893 18.9954ZM4.37859 11.6197C6.46734 12.3231 8.55904 12.6289 10.7196 11.813C11.8901 11.371 12.4519 10.6924 12.4008 9.5636C12.3758 9.0111 12.231 8.90111 11.6413 9.0249C10.1114 9.34611 8.56617 9.36654 7.01517 9.20669C5.93068 9.09492 4.85635 8.90789 3.75703 8.91112C3.55463 8.91172 3.45371 8.96867 3.35567 9.09728C2.87771 9.72428 2.94864 10.5305 3.52251 11.0913C3.75082 11.3144 4.0219 11.4753 4.37859 11.6197ZM9.70323 7.50134C9.55095 7.49503 9.39765 7.49666 9.24655 7.48118C7.86228 7.33937 6.51346 7.52579 5.17894 7.83261C4.81096 7.91721 4.51077 8.10989 4.24335 8.37349C4.59658 8.42509 4.93474 8.42506 5.27289 8.42511C5.42839 8.42513 5.49081 8.33856 5.53215 8.21892C5.5852 8.0654 5.68666 7.94944 5.8915 7.98799C6.08694 8.02477 6.14951 8.15934 6.14406 8.32087C6.14058 8.42383 6.11603 8.51357 6.26574 8.56863C6.55862 8.67635 6.70575 8.59818 6.71421 8.31299C6.71965 8.12988 6.71472 7.91582 6.99122 7.90025C7.26084 7.88507 7.31348 8.07375 7.32017 8.27156C7.3217 8.31679 7.32422 8.36254 7.33327 8.40692C7.38612 8.66643 7.65237 8.80087 8.00655 8.74545C8.32927 8.69496 8.17373 8.49207 8.15448 8.34476C8.13215 8.17386 8.18005 8.04511 8.37262 8.00168C8.58239 7.95437 8.71357 8.05121 8.77071 8.22913C8.80911 8.34868 8.83082 8.4728 8.87426 8.5907C8.95174 8.80102 9.15252 8.75719 9.32291 8.73847C9.49919 8.7191 9.49661 8.60561 9.45479 8.48108C9.39754 8.31062 9.46561 8.18323 9.65831 8.13953C9.86425 8.09282 9.98794 8.19959 10.081 8.35501C10.3152 8.74615 10.3819 8.76213 10.8503 8.55466C10.8319 8.37727 10.7443 8.16269 11.0106 8.06064C11.3189 7.94248 11.3921 8.2387 11.5822 8.32992C11.1687 7.72857 10.5503 7.47873 9.70323 7.50134ZM2.71231 2.37483C2.89689 2.42143 2.93606 2.32258 2.93481 2.19269C2.93056 1.75337 2.92781 1.31396 2.91428 0.874842C2.91054 0.753278 2.89488 0.608089 2.72167 0.580966C2.56526 0.556473 2.46675 0.662588 2.38658 0.765857C2.20203 1.00355 2.13743 1.27903 2.08057 1.55745C1.95798 2.15779 1.9957 2.21305 2.71231 2.37483ZM14.0424 1.37763C13.9253 1.10933 13.7695 0.872625 13.4158 0.760977C13.1565 1.16729 13.2193 1.60223 13.1895 2.02462C13.1715 2.28002 13.2927 2.35636 13.5698 2.35621C14.1881 2.35589 14.2416 2.31554 14.1584 1.75586C14.1418 1.64465 14.0972 1.53677 14.0424 1.37763Z" fill="black"/>
<path d="M7.29224 11.0934C7.74803 11.1566 8.16061 11.2819 8.60119 11.2399C8.78646 11.2222 8.9276 11.3174 8.95246 11.4864C8.97843 11.6629 8.84575 11.7583 8.66803 11.7917C8.53327 11.8169 8.38749 11.8459 8.25592 11.8256C7.68263 11.7367 7.10156 11.6835 6.5409 11.5326C6.30089 11.468 6.08468 11.3778 6.17198 11.1176C6.2561 10.8668 6.47993 10.9085 6.70519 10.9758C6.88433 11.0294 7.07467 11.0531 7.29224 11.0934Z" fill="black"/>
<path d="M7.96632 10.266C8.23326 10.3003 8.43637 10.3891 8.39233 10.6316C8.35005 10.8645 8.12233 10.8617 7.90927 10.8467C7.758 10.836 7.60266 10.8508 7.45483 10.8266C7.24251 10.7918 7.10804 10.6663 7.14295 10.4672C7.17768 10.2692 7.328 10.1845 7.55915 10.2239C7.68277 10.245 7.80958 10.2513 7.96632 10.266Z" fill="black"/>
<path d="M6.00053 10.0918C5.99725 10.3036 5.89208 10.4181 5.68105 10.4146C5.5094 10.4117 5.40699 10.3073 5.37896 10.1598C5.35328 10.0247 5.41109 9.90647 5.55522 9.85603C5.78117 9.77695 5.90888 9.89384 6.00053 10.0918Z" fill="black"/>
<path d="M10.0507 10.3372C9.82658 10.2873 9.71484 10.1788 9.74511 9.99241C9.76541 9.86747 9.86512 9.79715 10.0055 9.78643C10.1619 9.77449 10.2789 9.83971 10.3308 9.9687C10.4141 10.1757 10.2955 10.2858 10.0507 10.3372Z" fill="black"/>
</svg>
