<svg width="16" height="21" viewBox="0 0 16 21" fill="none" xmlns="http://www.w3.org/2000/svg">
<path fill-rule="evenodd" clip-rule="evenodd" d="M8 1C4.13 1 1 4.13 1 8C1 12.17 5.42 17.92 7.24 20.11C7.64 20.59 8.37 20.59 8.77 20.11C10.58 17.92 15 12.17 15 8C15 4.13 11.87 1 8 1Z" fill="white"/>
<path d="M7.24 20.11L7.12464 20.2059L7.12477 20.206L7.24 20.11ZM8.77 20.11L8.88523 20.206L8.88562 20.2056L8.77 20.11ZM8 0.85C4.04716 0.85 0.85 4.04716 0.85 8H1.15C1.15 4.21284 4.21284 1.15 8 1.15V0.85ZM0.85 8C0.85 10.1284 1.97425 12.6386 3.3087 14.8744C4.64681 17.1163 6.21224 19.108 7.12464 20.2059L7.35536 20.0141C6.44776 18.922 4.89319 16.9437 3.5663 14.7206C2.23575 12.4914 1.15 10.0416 1.15 8H0.85ZM7.12477 20.206C7.58474 20.758 8.42526 20.758 8.88523 20.206L8.65477 20.014C8.31474 20.422 7.69526 20.422 7.35523 20.014L7.12477 20.206ZM8.88562 20.2056C9.79284 19.1079 11.3557 17.1162 12.6926 14.8743C14.0258 12.6386 15.15 10.1284 15.15 8H14.85C14.85 10.0416 13.7642 12.4914 12.4349 14.7207C11.1093 16.9438 9.55716 18.9221 8.65438 20.0144L8.88562 20.2056ZM15.15 8C15.15 4.04716 11.9528 0.85 8 0.85V1.15C11.7872 1.15 14.85 4.21284 14.85 8H15.15Z" fill="black"/>
<path d="M8.29232 15.1129C7.03872 15.1125 5.80859 15.107 4.57857 15.116C4.33234 15.1178 4.19803 15.0486 4.11295 14.8006C3.75388 13.754 3.50219 12.6816 3.2954 11.5971C3.15329 10.8517 3.02648 10.1057 3.00609 9.34302C2.98203 8.44281 3.03045 7.55073 3.13031 6.65474C3.19687 6.05757 3.19709 5.45306 3.34542 4.8652C3.44876 4.45562 3.52796 4.03644 3.81449 3.70034C3.88859 3.61342 3.86027 3.50632 3.86478 3.40643C3.88188 3.02741 3.93485 2.65886 4.14549 2.32942C4.2473 2.17018 4.37804 2.05803 4.56562 2.01491C4.83128 1.95385 5.05308 2.08309 5.11202 2.35141C5.22924 2.88498 5.19451 3.42617 5.17385 3.96539C5.16398 4.22281 5.12171 4.47908 5.11401 4.73647C5.08591 5.67545 5.03863 6.61286 4.93033 7.54652C4.9225 7.61409 4.92931 7.68337 4.92931 7.74526C4.99155 7.77276 5.01827 7.737 5.04416 7.71095C5.60182 7.14979 6.29386 6.92185 7.06499 6.82216C7.73686 6.73531 8.40661 6.74626 9.07599 6.76161C9.55607 6.77261 9.99048 6.96187 10.3249 7.33169C10.3605 7.37106 10.3882 7.42191 10.4698 7.43527C10.5268 7.06152 10.5033 6.68768 10.4702 6.31846C10.4203 5.7612 10.4459 5.2088 10.5054 4.65526C10.5221 4.50002 10.5307 4.34339 10.533 4.18725C10.5354 4.02766 10.5406 3.87455 10.6708 3.75512C10.7495 3.68294 10.7291 3.58059 10.7283 3.48831C10.7256 3.17457 10.7267 2.85933 10.8216 2.55802C10.9713 2.08253 11.3103 1.99278 11.6696 2.33058C12.0287 2.66808 12.1234 3.105 12.0902 3.57412C12.079 3.73303 12.066 3.8846 12.125 4.03504C12.1722 4.15537 12.1656 4.28206 12.1613 4.40681C12.1131 5.81602 12.2759 7.21861 12.2923 8.62598C12.3027 9.51244 12.2421 10.3935 12.1465 11.2731C12.0773 11.9102 12.0432 12.552 11.9273 13.183C11.823 13.7514 11.7233 14.3205 11.5359 14.8723C11.467 15.075 11.3688 15.1157 11.1834 15.1147C10.2276 15.1093 9.27169 15.1126 8.29232 15.1129ZM5.69486 10.0213C6.9804 10.5068 8.26777 10.718 9.5975 10.1547C10.3179 9.84962 10.6637 9.38117 10.6322 8.60193C10.6169 8.22053 10.5277 8.1446 10.1648 8.23006C9.22317 8.4518 8.27216 8.4659 7.31757 8.35555C6.65011 8.2784 5.9889 8.14928 5.31231 8.15152C5.18774 8.15193 5.12563 8.19124 5.06529 8.28002C4.77112 8.71286 4.81477 9.26938 5.16797 9.65653C5.30849 9.81056 5.47533 9.92162 5.69486 10.0213ZM8.97197 7.17832C8.87825 7.17396 8.7839 7.17509 8.69091 7.1644C7.83894 7.06651 7.00879 7.19519 6.18744 7.407C5.96096 7.4654 5.77621 7.59841 5.61162 7.78038C5.82902 7.816 6.03714 7.81598 6.24527 7.81601C6.34097 7.81602 6.37939 7.75626 6.40483 7.67367C6.43748 7.5677 6.49992 7.48765 6.62599 7.51426C6.74628 7.53965 6.78479 7.63255 6.78144 7.74406C6.7793 7.81513 6.76418 7.87708 6.85633 7.91509C7.03659 7.98945 7.12714 7.93549 7.13235 7.73861C7.13569 7.61221 7.13266 7.46444 7.30283 7.45369C7.46877 7.44321 7.50117 7.57346 7.50529 7.71001C7.50623 7.74123 7.50778 7.77282 7.51335 7.80346C7.54588 7.9826 7.70974 8.07541 7.92773 8.03715C8.12635 8.00229 8.03062 7.86224 8.01877 7.76055C8.00503 7.64257 8.03452 7.55369 8.15303 7.52371C8.28214 7.49105 8.36287 7.55791 8.39804 7.68072C8.42167 7.76325 8.43504 7.84893 8.46177 7.93032C8.50946 8.07551 8.63303 8.04525 8.7379 8.03233C8.8464 8.01896 8.84481 7.94061 8.81907 7.85465C8.78383 7.73698 8.82572 7.64904 8.94433 7.61887C9.07107 7.58662 9.1472 7.66033 9.20448 7.76762C9.34864 8.03763 9.38967 8.04866 9.67796 7.90544C9.66661 7.78299 9.61271 7.63486 9.77661 7.56441C9.96637 7.48284 10.0114 7.68733 10.1284 7.7503C9.87394 7.33518 9.49332 7.16271 8.97197 7.17832ZM4.66932 3.63939C4.78292 3.67156 4.80704 3.60332 4.80626 3.51365C4.80365 3.21039 4.80196 2.90705 4.79363 2.60392C4.79133 2.52 4.78169 2.41978 4.67509 2.40105C4.57882 2.38414 4.51819 2.4574 4.46885 2.52869C4.35527 2.69277 4.31551 2.88294 4.28051 3.07514C4.20507 3.48956 4.22828 3.52771 4.66932 3.63939ZM11.6426 2.951C11.5705 2.76579 11.4746 2.60239 11.2569 2.52532C11.0973 2.8058 11.136 3.10605 11.1176 3.39764C11.1066 3.57394 11.1812 3.62664 11.3517 3.62654C11.7323 3.62631 11.7651 3.59846 11.7139 3.21211C11.7038 3.13534 11.6763 3.06086 11.6426 2.951Z" fill="black"/>
<path d="M7.48826 9.65797C7.76878 9.7016 8.02271 9.78809 8.29387 9.75908C8.40789 9.74689 8.49476 9.81263 8.51006 9.92926C8.52604 10.0512 8.44439 10.117 8.33501 10.14C8.25207 10.1575 8.16234 10.1775 8.08137 10.1634C7.72853 10.1021 7.3709 10.0653 7.02584 9.96118C6.87812 9.91661 6.74505 9.85432 6.79878 9.67465C6.85056 9.50154 6.98832 9.53035 7.12695 9.57682C7.2372 9.61377 7.35436 9.63014 7.48826 9.65797Z" fill="black"/>
<path d="M7.90358 9.08686C8.06811 9.11053 8.1933 9.1718 8.16616 9.33924C8.1401 9.50002 7.99974 9.49807 7.86842 9.48769C7.77518 9.48033 7.67944 9.49056 7.58832 9.47383C7.45746 9.44981 7.37457 9.36317 7.39609 9.22574C7.4175 9.08904 7.51015 9.03054 7.65262 9.0578C7.72881 9.07237 7.80697 9.07666 7.90358 9.08686Z" fill="black"/>
<path d="M6.69376 8.96662C6.69174 9.1128 6.62692 9.19185 6.49685 9.18942C6.39105 9.18744 6.32793 9.11536 6.31065 9.01358C6.29482 8.92033 6.33045 8.83868 6.41929 8.80386C6.55856 8.74927 6.63727 8.82997 6.69376 8.96662Z" fill="black"/>
<path d="M9.18612 9.13593C9.04797 9.10147 8.9791 9.02655 8.99776 8.89791C9.01027 8.81167 9.07172 8.76312 9.15827 8.75572C9.25463 8.74748 9.32678 8.7925 9.35875 8.88155C9.41007 9.02447 9.33698 9.10046 9.18612 9.13593Z" fill="black"/>
</svg>
