<svg width="13" height="22" viewBox="0 0 13 22" fill="none" xmlns="http://www.w3.org/2000/svg">
<path fill-rule="evenodd" clip-rule="evenodd" d="M6.34557 6.5C2.99564 6.5 0.286255 8.82621 0.286255 11.7024C0.286255 14.8015 4.11228 19.0749 5.6877 20.7025C6.03395 21.0592 6.66585 21.0592 7.0121 20.7025C8.57886 19.0749 12.4049 14.8015 12.4049 11.7024C12.4049 8.82621 9.69551 6.5 6.34557 6.5Z" fill="white"/>
<path d="M5.6877 20.7025L5.57992 20.8068L5.58007 20.807L5.6877 20.7025ZM7.0121 20.7025L7.11974 20.807L7.12016 20.8065L7.0121 20.7025ZM6.34557 6.35C2.93507 6.35 0.136255 8.72272 0.136255 11.7024H0.436255C0.436255 8.9297 3.0562 6.65 6.34557 6.65V6.35ZM0.136255 11.7024C0.136255 13.3022 1.11833 15.1789 2.27303 16.8399C3.43306 18.5086 4.78966 19.9904 5.57992 20.8068L5.79548 20.5982C5.01033 19.787 3.6662 18.3184 2.51936 16.6686C1.36719 15.0113 0.436255 13.2017 0.436255 11.7024H0.136255ZM5.58007 20.807C5.98523 21.2244 6.71457 21.2244 7.11973 20.807L6.90446 20.598C6.61713 20.8941 6.08267 20.8941 5.79534 20.598L5.58007 20.807ZM7.12016 20.8065C7.90592 19.9903 9.26032 18.5085 10.4192 16.8398C11.5728 15.1789 12.5549 13.3021 12.5549 11.7024H12.2549C12.2549 13.2018 11.3239 15.0113 10.1728 16.6687C9.02704 18.3184 7.68505 19.7871 6.90403 20.5985L7.12016 20.8065ZM12.5549 11.7024C12.5549 8.72272 9.75608 6.35 6.34557 6.35V6.65C9.63494 6.65 12.2549 8.9297 12.2549 11.7024H12.5549Z" fill="black"/>
<path d="M1.61509 7.19101C2.1611 6.75458 2.66366 6.32305 3.25594 5.98397C2.69931 5.64801 2.09749 5.41583 1.74215 4.85433C1.08717 3.81934 1.45393 2.09212 2.38881 1.28705C3.48673 0.341564 4.78383 0.13631 6.11525 0.0397283C6.90865 -0.0178272 7.70979 -0.00495025 8.50544 0.0286301C9.89474 0.0872654 10.967 1.2468 11.3596 2.43453C11.7326 3.56323 11.0618 5.08496 9.99297 5.77962C9.84362 5.87669 9.70409 5.99038 9.57798 6.08315C10.8869 7.08913 11.9513 8.21642 12.3244 9.98794C12.5696 11.1524 12.5559 12.2458 12.2967 13.3746C12.2247 13.688 12.0577 13.787 11.7675 13.7866C8.277 13.7818 4.78651 13.7832 1.29603 13.7855C1.05092 13.7856 0.835235 13.7463 0.728483 13.4759C0.375539 12.5818 0.0148761 11.6592 0.000610867 10.7021C-0.0201428 9.30996 0.487317 8.09358 1.61509 7.19101ZM2.74148 5.16445C4.89685 6.15713 7.07139 6.61022 9.34085 5.53196C10.4465 5.00667 10.8659 4.39418 10.8428 3.12917C10.8304 2.4482 10.694 2.31609 10.0761 2.48986C9.29924 2.70831 8.50905 2.72509 7.71453 2.78116C6.02185 2.90062 4.3852 2.35619 2.70133 2.37836C2.29705 2.38368 2.11562 2.54532 1.99421 2.88346C1.66549 3.79894 1.85399 4.41057 2.74148 5.16445ZM4.9102 1.85093C5.1918 1.99867 5.33934 1.93418 5.34909 1.5778C5.35493 1.36421 5.43309 1.15631 5.68397 1.16074C5.90702 1.16467 5.97381 1.35643 5.98271 1.55073C6.01037 2.15467 6.36485 2.09702 6.73795 2.02028C6.85049 1.7517 6.64192 1.35798 7.03049 1.29255C7.37 1.23538 7.39567 1.57472 7.47507 1.80855C7.56231 2.06547 7.72245 2.08989 7.96903 1.99452C8.01402 1.79451 7.93758 1.48356 8.23373 1.41672C8.53022 1.34979 8.62471 1.60156 8.72113 1.82321C8.79064 1.98299 8.91173 2.03141 9.06714 2.01509C9.23211 1.99776 9.34561 1.90896 9.3183 1.72825C9.27569 1.44631 9.56212 1.36261 9.64606 1.1666C8.42555 0.278884 4.05299 0.616286 3.08332 1.72479C3.50601 1.63224 3.88499 1.89007 4.19402 1.54755C4.3172 1.41103 4.39906 1.2256 4.61213 1.28276C4.86257 1.34996 4.79593 1.61025 4.9102 1.85093Z" fill="black"/>
<path d="M6.18374 4.83339C6.53559 4.94501 6.85402 4.94047 7.17063 4.95606C7.36525 4.96565 7.52408 5.04774 7.54005 5.27089C7.55455 5.47342 7.40437 5.58502 7.24385 5.60111C6.47583 5.67811 5.743 5.48578 5.02772 5.22137C4.86739 5.1621 4.80891 4.97519 4.86886 4.79793C4.93393 4.60553 5.10012 4.57983 5.26449 4.61395C5.55769 4.67482 5.84769 4.75255 6.18374 4.83339Z" fill="black"/>
<path d="M5.79529 4.01585C6.15573 3.60516 6.53167 3.81873 6.86879 3.96045C7.07464 4.04699 7.08491 4.28889 6.8935 4.45589C6.57325 4.73532 5.90131 4.48789 5.79529 4.01585Z" fill="black"/>
<path d="M8.31384 3.70561C8.32202 3.34438 8.48491 3.23431 8.75669 3.37334C8.91205 3.45281 8.98307 3.62896 8.87311 3.79153C8.68236 4.07355 8.49431 3.96927 8.31384 3.70561Z" fill="black"/>
<path d="M4.39082 4.0421C4.08767 3.92493 3.99432 3.73098 4.1743 3.48361C4.3048 3.30424 4.49296 3.32884 4.61641 3.50664C4.79462 3.76328 4.71114 3.9483 4.39082 4.0421Z" fill="black"/>
</svg>
