<svg width="38" height="36" viewBox="0 0 38 36" fill="none" xmlns="http://www.w3.org/2000/svg">
<path d="M4.44255 24.5688C4.04827 23.143 3.82259 22.0315 3.60608 20.9652C14.5667 16.7633 16.8628 13.8792 18.3337 2.65989C26.1286 1.41693 32.9671 6.74409 34.227 15.2941C24.8416 17.5086 19.9091 23.5024 19.8854 33.2301C13.6274 34.4492 8.73751 31.7397 4.44255 24.5688Z" fill="#F98D55"/>
<path d="M8.29071 16.4767C6.57478 17.1129 5.17957 17.5572 3.73491 18.0172C2.75867 10.8148 7.56471 4.537 15.2575 3.02991C15.8431 8.94952 13.5596 13.2507 8.29071 16.4767Z" fill="#F98D55"/>
<path d="M28.7006 30.6915C26.7099 31.738 24.9992 32.5708 23.1365 33.4775C21.9821 24.926 26.5806 19.1624 34.8348 18.4902C34.8232 23.5026 32.6455 27.3333 28.7006 30.6915Z" fill="#F98D55"/>
</svg>
