<svg width="60" height="32" viewBox="0 0 60 32" fill="none" xmlns="http://www.w3.org/2000/svg">
<path d="M15.8508 32C10.6991 32 5.64876 32 0.306744 32C0.948834 31.1011 1.41299 30.427 1.90171 29.7709C5.58532 24.8259 9.26059 19.8746 12.9847 14.9597C13.296 14.5489 13.9224 14.2187 14.4442 14.1461C16.478 13.8631 18.5336 13.7359 20.5692 13.4632C21.0445 13.3996 21.585 13.0895 21.9058 12.7276C25.1338 9.08635 28.3248 5.41279 31.5168 1.74035C31.7563 1.46472 31.9242 1.1278 32.2119 0.686657C34.0156 2.97172 35.5936 4.9668 37.1671 6.96538C40.1773 10.7888 43.1947 14.6068 46.1827 18.4472C46.6074 18.9931 47.0046 19.2557 47.7049 18.9997C49.2639 18.43 50.2855 18.8756 51.2969 20.3102C53.9427 24.0631 56.8191 27.656 59.6 31.3154C59.7162 31.4683 59.7962 31.6481 60 32C45.2167 32 30.5844 32 15.8508 32ZM6.44628 28.1509C6.45907 28.0697 6.47186 27.9885 6.48465 27.9072C6.41373 27.9831 6.34282 28.059 6.21013 28.1829C6.21936 28.2255 6.2286 28.2681 6.23784 28.3106C6.27383 28.2766 6.30983 28.2425 6.44628 28.1509ZM12.9859 27.0252C13.0782 26.9607 13.1704 26.8961 13.3981 26.7872C15.5998 25.5584 17.8216 24.3629 19.9904 23.0793C20.6039 22.7161 21.0043 22.784 21.5209 23.1653C22.6164 23.974 23.7422 24.7422 24.9185 25.5713C25.0534 25.2136 25.1628 24.9723 25.2367 24.7208C26.3775 20.8381 27.5234 16.9569 28.6474 13.0695C29.3528 10.6301 30.0237 8.18098 30.7638 5.67619C30.7512 5.63091 30.7386 5.58563 30.726 5.54035C30.685 5.57059 30.644 5.60083 30.4852 5.69995C29.3839 7.00665 28.2779 8.30945 27.1822 9.62077C23.3782 14.1733 19.5713 18.7235 15.7809 23.2871C14.8646 24.3904 14.0074 25.5419 13.0179 26.7113C12.9337 26.787 12.8496 26.8627 12.7039 26.9885C12.7602 27.007 12.8164 27.0255 12.9859 27.0252ZM46.4888 26.2936C47.083 24.4063 47.6772 22.5189 48.3581 20.356C43.1141 22.6599 38.177 24.8289 33.2399 26.998C33.459 27.1552 33.6269 27.1787 33.7861 27.1518C36.674 26.6631 39.5657 26.1943 42.4443 25.6569C43.181 25.5194 43.644 25.6642 44.0639 26.2796C44.5541 26.9982 45.14 27.6526 45.7936 28.4718C46.0558 27.6501 46.2479 27.0479 46.4888 26.2936ZM11.0164 23.8936C13.5456 21.5098 16.0748 19.1259 18.781 16.5752C17.5924 16.5185 16.6531 16.5509 15.742 16.4074C14.9066 16.2758 14.3797 16.4655 13.8849 17.1776C11.7077 20.3108 9.47219 23.4041 7.26542 26.5172C7.05417 26.8152 6.89574 27.1501 6.71278 27.4678C6.79792 27.5328 6.88306 27.5978 6.9682 27.6628C8.28376 26.44 9.59932 25.2172 11.0164 23.8936Z" fill="#FCDF82"/>
</svg>
